<svg width="41" height="41" viewBox="0 0 41 41" fill="none" xmlns="http://www.w3.org/2000/svg">
<path d="M25.7878 12.3334L20.4999 17.6213L15.212 12.3334L12.3333 15.2121L17.6212 20.5L12.3333 25.788L15.212 28.6667L20.4999 23.3788L25.7878 28.6667L28.6666 25.788L23.3787 20.5L28.6666 15.2121L25.7878 12.3334ZM20.4999 0.083374C9.2095 0.083374 0.083252 9.20962 0.083252 20.5C0.083252 31.7905 9.2095 40.9167 20.4999 40.9167C31.7903 40.9167 40.9166 31.7905 40.9166 20.5C40.9166 9.20962 31.7903 0.083374 20.4999 0.083374ZM20.4999 36.8334C11.4962 36.8334 4.16659 29.5038 4.16659 20.5C4.16659 11.4963 11.4962 4.16671 20.4999 4.16671C29.5037 4.16671 36.8333 11.4963 36.8333 20.5C36.8333 29.5038 29.5037 36.8334 20.4999 36.8334Z" fill="#3891E3"/>
</svg>
