<svg width="86" height="80" viewBox="0 0 86 80" fill="none" xmlns="http://www.w3.org/2000/svg">
<path d="M37.1026 6.15979C40.2668 3.01445 45.733 3.01445 48.8972 6.15979L52.966 10.2045C54.5648 11.7942 56.8632 12.6561 59.2357 12.5557L65.2718 12.3003C69.9655 12.1017 73.8312 15.6012 73.6119 19.8509L73.3295 25.3156C73.2186 27.4633 74.1706 29.5441 75.9266 30.9918L80.3941 34.6753C83.8686 37.54 83.8686 42.4888 80.3941 45.3534L75.9266 49.037C74.1706 50.4845 73.2186 52.5654 73.3295 54.7133L73.6119 60.178C73.8312 64.4274 69.9655 67.9272 65.2718 67.7286L59.2357 67.473C56.8632 67.3726 54.5648 68.2345 52.966 69.8243L48.8972 73.8689C45.733 77.0145 40.2668 77.0145 37.1026 73.8689L33.034 69.8243C31.4349 68.2345 29.1366 67.3726 26.7643 67.473L20.7282 67.7286C16.0343 67.9272 12.1688 64.4274 12.3882 60.178L12.6703 54.7133C12.7812 52.5654 11.8292 50.4845 10.0733 49.037L5.60566 45.3534C2.13145 42.4888 2.13145 37.54 5.60566 34.6753L10.0733 30.9918C11.8292 29.5441 12.7812 27.4633 12.6703 25.3156L12.3882 19.8508C12.1688 15.6012 16.0343 12.1017 20.7282 12.3003L26.7643 12.5557C29.1366 12.6561 31.4349 11.7942 33.034 10.2045L37.1026 6.15979Z" stroke="#3891E3" stroke-width="6"/>
<path d="M31.0355 40.0144L39.0118 47.2357L54.9644 32.7931" stroke="#3891E3" stroke-width="6" stroke-linecap="round" stroke-linejoin="round"/>
</svg>
