<svg width="86" height="80" viewBox="0 0 86 80" fill="none" xmlns="http://www.w3.org/2000/svg">
<path d="M34.7985 37.4342L5.43275 64.0204C2.18908 66.9568 2.18908 71.7183 5.43275 74.6547C8.67637 77.5915 13.9354 77.5915 17.179 74.6547L46.5448 48.0689" stroke="#3891E3" stroke-width="6" stroke-linecap="round" stroke-linejoin="round"/>
<path d="M64.4607 49.4384L80.5671 64.0202C83.811 66.9566 83.811 71.7181 80.5671 74.6545C77.3236 77.5913 72.0643 77.5913 68.8209 74.6545L43.0373 51.3119" stroke="#3891E3" stroke-width="6" stroke-linecap="round" stroke-linejoin="round"/>
<path d="M21.0205 19.7524L12.2107 22.411L3.401 9.11802L9.27414 3.80078L23.9571 11.7766L21.0205 19.7524ZM21.0205 19.7524L32.7743 30.3936" stroke="#3891E3" stroke-width="6" stroke-linecap="round" stroke-linejoin="round"/>
<path d="M34.7986 37.4339C31.2943 29.339 31.9795 18.7175 39.2036 12.1772C46.4277 5.6369 59.7595 4.2014 67.1011 8.18931L54.4732 19.6217L53.2996 31.3187L66.2194 30.2562L78.8473 18.8237C83.2523 25.4702 81.6667 37.5403 74.4427 44.0806C67.2182 50.6208 55.4865 51.2412 46.5452 48.0683" stroke="#3891E3" stroke-width="6" stroke-linecap="round" stroke-linejoin="round"/>
</svg>
