<svg width="96" height="75" viewBox="0 0 96 75" fill="none" xmlns="http://www.w3.org/2000/svg">
<path d="M15.5938 49.2728L20.1654 40.4972C20.7523 39.3706 22.4477 39.3706 23.0346 40.4972L27.6062 49.2728L37.8298 50.689C39.1415 50.8706 39.6642 52.3983 38.7147 53.2751L31.3183 60.1012L33.0639 69.7449C33.288 70.9834 31.9161 71.9274 30.7424 71.3427L21.6 66.7871L12.4576 71.3427C11.2839 71.9274 9.91197 70.9834 10.1362 69.7449L11.8817 60.1012L4.48532 53.2751C3.53566 52.3983 4.05847 50.8706 5.3702 50.689L15.5938 49.2728Z" stroke="#3891E3" stroke-width="6" stroke-linecap="round" stroke-linejoin="round"/>
<path d="M68.3935 49.2728L72.9656 40.4972C73.5521 39.3706 75.2479 39.3706 75.8344 40.4972L80.4064 49.2728L90.6298 50.689C91.9415 50.8706 92.4642 52.3983 91.5147 53.2751L84.1183 60.1012L85.8638 69.7449C86.0882 70.9834 84.7162 71.9274 83.5423 71.3427L74.4 66.7871L65.2577 71.3427C64.0837 71.9274 62.7118 70.9834 62.9362 69.7449L64.6817 60.1012L57.2853 53.2751C56.3358 52.3983 56.8585 50.8706 58.1701 50.689L68.3935 49.2728Z" stroke="#3891E3" stroke-width="6" stroke-linecap="round" stroke-linejoin="round"/>
<path d="M41.9936 13.4215L46.5656 4.64571C47.1521 3.51914 48.8479 3.51914 49.4344 4.64571L54.0065 13.4215L64.2299 14.8375C65.5415 15.0191 66.0642 16.547 65.1147 17.4234L57.7183 24.2496L59.4638 33.8934C59.6882 35.1318 58.3163 36.0759 57.1424 35.4912L48 30.9355L38.8577 35.4912C37.684 36.0759 36.312 35.1318 36.5362 33.8934L38.2817 24.2496L30.8853 17.4234C29.9357 16.547 30.4585 15.0191 31.7702 14.8375L41.9936 13.4215Z" stroke="#3891E3" stroke-width="6" stroke-linecap="round" stroke-linejoin="round"/>
</svg>
